<?xml version="1.0" encoding="utf-8"?>
<!-- Generator: Adobe Illustrator 22.0.1, SVG Export Plug-In . SVG Version: 6.00 Build 0)  -->
<svg version="1.1" id="amiran" xmlns="http://www.w3.org/2000/svg" xmlns:xlink="http://www.w3.org/1999/xlink" x="0px" y="0px"
	 viewBox="0 0 120 48.1" style="enable-background:new 0 0 120 48.1;" xml:space="preserve">
<style type="text/css">
	.st0{fill:#2277BB;}
	.st1{fill:#C2CADB;}
</style>
<path class="st0" d="M24.8,25l3.6,10.4h-2.3l-0.8-2.3h-4.1l-0.8,2.3h-2.1L22.1,25H24.8 M24.8,31.5l-1.4-4.4l-1.5,4.4H24.8z"/>
<polyline class="st0" points="29.5,25 33.2,25 35.4,32.6 37.8,25 41.3,25 41.3,35.4 39.1,35.4 39.1,26.5 36.3,35.4 34.4,35.4 
	31.6,26.5 31.6,35.4 29.5,35.4 29.5,25 "/>
<rect x="43.2" y="24.9" class="st0" width="2.2" height="10.5"/>
<path class="st0" d="M47.2,25h4c1.2,0,2.3,0,3.2,0.7c0.6,0.6,0.9,1.3,0.9,2c0,2-1.7,2.4-2.2,2.6c1.6,0.1,1.7,1,1.9,2.4
	c0.2,1.2,0.2,1.7,0.3,2c0.1,0.5,0.2,0.6,0.3,0.7h-2.5c-0.1-0.6-0.4-3.2-0.6-3.6c-0.2-0.6-0.8-0.6-1.1-0.6h-2v4.2h-2.3L47.2,25
	 M49.4,29.5h1.8c0.3,0,0.8,0,1.1-0.3c0.2-0.1,0.6-0.5,0.6-1.2s-0.3-1-0.6-1.2s-0.7-0.2-1.4-0.2h-1.5C49.4,26.6,49.4,29.5,49.4,29.5z
	"/>
<path class="st0" d="M62.5,25l3.6,10.4h-2.3L63,33.1h-4.1l-0.8,2.3H56L59.8,25H62.5 M62.5,31.5l-1.4-4.4l-1.5,4.4H62.5z"/>
<polyline class="st0" points="67.4,25 70.7,25 74.6,33.2 74.6,25 76.6,25 76.6,35.4 73.6,35.4 69.5,26.8 69.5,35.4 67.4,35.4 
	67.4,25 "/>
<path class="st0" d="M24.2,41.5c-0.1-1-1-1.4-1.9-1.4c-2,0-2.7,1.9-2.7,3.5s0.6,3.5,2.7,3.5c0.9,0,1.8-0.4,2-1.4h0.8
	c-0.2,1.3-1.5,2.1-2.7,2.1c-2.4,0-3.4-1.9-3.4-4.2c0-2.2,1-4.2,3.4-4.2c1.3,0,2.5,0.6,2.7,2h-0.9"/>
<path class="st0" d="M29.9,47.7c-2.3,0-3.6-1.7-3.6-4.2s1.3-4.2,3.6-4.2s3.6,1.7,3.6,4.2C33.5,46.1,32.2,47.7,29.9,47.7 M29.9,47.1
	c2,0,2.8-1.7,2.8-3.5c0-1.7-0.8-3.5-2.8-3.5s-2.8,1.7-2.8,3.5C27.1,45.3,27.9,47.1,29.9,47.1z"/>
<polyline class="st0" points="35.3,47.6 35.3,39.6 36.4,39.6 39.4,46.5 42.5,39.6 43.6,39.6 43.6,47.6 42.9,47.6 42.9,40.2 
	42.9,40.2 39.8,47.6 39.1,47.6 36,40.2 36,40.2 36,47.6 35.3,47.6 "/>
<polyline class="st0" points="45.7,47.6 45.7,39.6 46.9,39.6 49.9,46.5 52.9,39.6 54,39.6 54,47.6 53.3,47.6 53.3,40.2 53.3,40.2 
	50.2,47.6 49.5,47.6 46.5,40.2 46.4,40.2 46.4,47.6 45.7,47.6 "/>
<path class="st0" d="M56.9,39.6v5.2c0.1,1.4,0.9,2.3,2.2,2.3s2.1-0.9,2.2-2.3v-5.2H62v5.2c0,1.7-1,3-2.9,3s-2.9-1.3-2.9-3v-5.2H56.9
	"/>
<polyline class="st0" points="64.1,39.6 64.9,39.6 69.3,46.6 69.3,46.6 69.3,39.6 70,39.6 70,47.6 69.1,47.6 64.8,40.7 64.8,40.7 
	64.8,47.6 64.1,47.6 64.1,39.6 "/>
<rect x="72.2" y="39.5" class="st0" width="0.7" height="8"/>
<path class="st0" d="M80.1,41.5c-0.1-1-1-1.4-1.9-1.4c-2,0-2.7,1.9-2.7,3.5s0.6,3.5,2.7,3.5c0.9,0,1.8-0.4,2-1.4H81
	c-0.2,1.3-1.5,2.1-2.7,2.1c-2.4,0-3.4-1.9-3.4-4.2c0-2.2,1-4.2,3.4-4.2c1.3,0,2.5,0.6,2.7,2h-0.9"/>
<path class="st0" d="M81.6,47.6l3.2-8h0.8l3.2,8H88l-0.9-2.2h-4l-0.8,2.2H81.6 M86.9,44.7l-1.7-4.5l-1.8,4.5H86.9z"/>
<polyline class="st0" points="90.8,40.2 88.2,40.2 88.2,39.6 94,39.6 94,40.2 91.5,40.2 91.5,47.6 90.8,47.6 90.8,40.2 "/>
<rect x="95.3" y="39.5" class="st0" width="0.7" height="8"/>
<path class="st0" d="M101.5,47.7c-2.3,0-3.6-1.7-3.6-4.2s1.3-4.2,3.6-4.2c2.3,0,3.6,1.7,3.6,4.2C105.1,46.1,103.8,47.7,101.5,47.7
	 M101.5,47.1c2,0,2.8-1.7,2.8-3.5c0-1.7-0.8-3.5-2.8-3.5s-2.8,1.7-2.8,3.5C98.7,45.3,99.5,47.1,101.5,47.1z"/>
<polyline class="st0" points="106.8,39.6 107.7,39.6 112.1,46.6 112.1,46.6 112.1,39.6 112.8,39.6 112.8,47.6 111.9,47.6 
	107.6,40.7 107.6,40.7 107.6,47.6 106.8,47.6 106.8,39.6 "/>
<path class="st0" d="M116.8,47.7c-1.3,0-2.3-0.9-2.4-2.2h0.8c0,1.2,0.9,1.6,2,1.6c0.9,0,1.9-0.5,1.9-1.5c0-0.8-0.6-1.2-1.2-1.4
	c-1.3-0.4-3.3-0.8-3.3-2.6c0-1.4,1.3-2.2,2.5-2.2c1,0,2.4,0.4,2.6,1.9H119c0-1-0.9-1.2-1.7-1.2c-0.8,0-1.9,0.4-1.9,1.4
	c0,2.3,4.5,1.2,4.5,4C119.9,47.2,118.4,47.7,116.8,47.7"/>
<path class="st0" d="M8.1,24c-2.5,3-4.4,6.3-5.6,9.9c1.8-3.4,4.3-6.6,7.3-9.5C9.2,24.3,8.7,24.2,8.1,24"/>
<path class="st0" d="M42,9.1c-6.5,0-12.6,1.2-18,3.4c0,0.9-0.2,1.8-0.4,2.6c5.3-2.3,11.2-3.9,17.5-4.6c4.6-0.5,9.2-0.4,13.5,0.2
	C50.7,9.7,46.4,9.1,42,9.1"/>
<path class="st1" d="M11.8,13.2C1,13.2,0.3,10.1,0.3,10.1c0.2-1.9,1.2-3.6,1.2-3.6s1,2.7,10.2,2.7C21,9.2,22,6.5,22,6.5
	s1.1,1.9,1.3,3.8C23.3,10.3,22.5,13.2,11.8,13.2"/>
<path class="st1" d="M11.7,23.7c-2.6,0-4.9-0.8-6.8-2.2c0,0,2.5,1.1,6.8,1.1s6.8-1.1,6.8-1.1C16.6,22.8,14.3,23.7,11.7,23.7"/>
<path class="st1" d="M11.7,20.2c-7.6,0-9.8-2-9.8-2c-1.3-2.2-1.6-3.9-1.6-3.9C2.7,16.7,8.9,17,11,17c0.4,0,0.7,0,0.7,0s0.2,0,0.6,0
	c2,0,8.3-0.2,10.7-2.7c0,0-0.3,1.8-1.6,4C21.5,18.2,19.3,20.2,11.7,20.2"/>
<path class="st0" d="M1.1,16.5c0,0,0.9-1.1,4.1,2.1s2.1,4.1,2.1,4.1s1.7,0.9,3.8,0.9c0,0,1.2-2.2-3.8-7.2s-7-4-7.2-3.6
	C0.1,12.8,0.1,14.2,1.1,16.5"/>
<path class="st0" d="M12.6,11.1C5,3.5,2.4,5.2,2.4,5.2C1.2,6.6,0.6,8.6,0.6,8.6s2.6-1.2,9.2,5.3c6.6,6.6,5.3,9.2,5.3,9.2
	s2-0.5,3.4-1.7C18.5,21.4,20.2,18.7,12.6,11.1"/>
<path class="st0" d="M17.1,6.1c-5.6-5.2-9.8-4.9-9.8-4.9C5.2,2,4,3.3,4,3.3c4.2-0.2,10.9,5.2,10.9,5.2s6.4,5.6,6.5,9.7
	c0,0,1.1-1.4,1.6-3.9C23.1,14.3,22.8,11.3,17.1,6.1"/>
<path class="st0" d="M23.3,10.3C23,8,21.9,5.7,20.1,3.9s-4-2.9-6.4-3.3c0,0,2.5,1,5.5,4.1C22.3,7.8,23.3,10.3,23.3,10.3"/>
</svg>
